<svg id="Layer_1" data-name="Layer 1" xmlns="http://www.w3.org/2000/svg" viewBox="0 0 114.72 114.72"><defs><style>.cls-1{fill:#4e7772;stroke:#35645f;stroke-miterlimit:10;stroke-width:1.63px;}.cls-2{fill:#f5f5ed;}</style></defs><circle class="cls-1" cx="57.36" cy="57.36" r="54.23"/><path class="cls-2" d="M55.06,43.92a51.55,51.55,0,0,1-.92,11.43c-.92,3.94-3,6.93-7,8.18a19,19,0,0,1-3.64.74A36.65,36.65,0,0,1,33,64.05c-5.19-.95-8-3.78-9.15-9.06A51.34,51.34,0,0,1,23,44.13a52.18,52.18,0,0,1,.84-11.36C24.55,29.5,26,26.69,29.05,25a14.6,14.6,0,0,1,5.82-1.58A39.11,39.11,0,0,1,45,23.69c5.32.94,8.17,3.86,9.28,9.37A55.59,55.59,0,0,1,55.06,43.92Zm-4.59-.05c0-.83,0-1.66,0-2.49a36.49,36.49,0,0,0-1-8.77,5.61,5.61,0,0,0-4.67-4.29,33.6,33.6,0,0,0-11.14-.08,5.66,5.66,0,0,0-5.07,4.5A16.4,16.4,0,0,0,28,36.11c-.15,4.14-.33,8.29-.23,12.43a34.66,34.66,0,0,0,1,6.77,5.17,5.17,0,0,0,4.4,4.08,31,31,0,0,0,11.92,0,5.34,5.34,0,0,0,4.34-4c.14-.46.29-.93.39-1.4A49.82,49.82,0,0,0,50.47,43.87Z"/><path class="cls-2" d="M59.67,71.38a51,51,0,0,1,.92-11.5c.74-3.11,2.18-5.75,5.09-7.35a14.61,14.61,0,0,1,5.81-1.59,39.29,39.29,0,0,1,9.93.22c5.39.88,8.32,3.73,9.48,9.15a52,52,0,0,1,.83,10.92,52.7,52.7,0,0,1-.83,11.22c-.65,2.94-1.84,5.57-4.44,7.32A12.33,12.33,0,0,1,81,91.68a36.8,36.8,0,0,1-11.38-.14c-5.32-1-8.06-3.86-9.17-9.3A54.83,54.83,0,0,1,59.67,71.38Zm27.4,0c0-1.47.05-2.93,0-4.4a25.42,25.42,0,0,0-1.12-7.34A5.12,5.12,0,0,0,82.06,56a27.07,27.07,0,0,0-4.19-.58,29.32,29.32,0,0,0-8.15.45,5.39,5.39,0,0,0-4.34,4,21.92,21.92,0,0,0-.68,3,74.87,74.87,0,0,0-.37,12.79,28.72,28.72,0,0,0,.94,7,5.6,5.6,0,0,0,4.66,4.3A33.87,33.87,0,0,0,81.07,87a5.77,5.77,0,0,0,5.17-4.85c0-.17.09-.33.13-.49A44.27,44.27,0,0,0,87.07,71.35Z"/><path class="cls-2" d="M75.7,46.34c-2.72-.23-5.46-.31-8.15-.73-4.89-.77-7.12-3.14-7.73-8a22.83,22.83,0,0,1,.17-7c.71-3.77,3.11-5.84,6.73-6.63a45.62,45.62,0,0,1,11.37-.64,41.63,41.63,0,0,1,6.32.62c4.44.88,6.47,3.09,7.12,7.56a22.23,22.23,0,0,1-.17,7.5,7.65,7.65,0,0,1-5.64,6.2,31,31,0,0,1-8.25,1c-.59,0-1.17,0-1.76,0Zm0-4.6v-.23a38.58,38.58,0,0,0,3.88,0,45.43,45.43,0,0,0,5.18-.84,2.68,2.68,0,0,0,2-2.28,18.48,18.48,0,0,0,0-7.26,2.87,2.87,0,0,0-2.07-2.34,9.37,9.37,0,0,0-2.41-.56c-3.58-.14-7.17-.26-10.75-.24a23.52,23.52,0,0,0-4.47.65,3.15,3.15,0,0,0-2.61,2.81,19.73,19.73,0,0,0,0,6.77,3.14,3.14,0,0,0,2.31,2.57,6.48,6.48,0,0,0,1.28.32C70.65,41.31,73.18,41.52,75.7,41.74Z"/><path class="cls-2" d="M39.05,68.86c3,.32,6.05.45,9,1a7.7,7.7,0,0,1,6.72,6.93,23.3,23.3,0,0,1-.11,8.16,7.73,7.73,0,0,1-6.14,6.25A32.79,32.79,0,0,1,39.6,92a74.2,74.2,0,0,1-8.82-.56c-4.62-.66-6.91-3.08-7.59-7.68a22.86,22.86,0,0,1,.1-7.15A7.71,7.71,0,0,1,30,69.84C33,69.31,36,69.18,39.05,68.86ZM39,87.57l0-.21c1.22,0,2.45.1,3.65,0a54.62,54.62,0,0,0,5.4-.85,2.56,2.56,0,0,0,2-2,16.58,16.58,0,0,0,0-7.83,2.53,2.53,0,0,0-1.67-1.89,13.19,13.19,0,0,0-2.61-.68,58.67,58.67,0,0,0-11.32-.23,24.63,24.63,0,0,0-4.25.7A3,3,0,0,0,27.9,77a18.23,18.23,0,0,0-.16,6.12c.33,2.56,1.18,3.45,3.76,3.79S36.49,87.36,39,87.57Z"/></svg>