<?xml version="1.0" encoding="UTF-8"?>
<svg id="Layer_1" data-name="Layer 1" xmlns="http://www.w3.org/2000/svg" viewBox="0 0 114.72 114.72">
  <defs>
    <style>
      .cls-1 {
        fill: #f5f5ed;
      }
    </style>
  </defs>
  <path class="cls-1" d="M55.8,48.05c-.02,2.6-.02,5.2-.62,7.75-.62,2.67-2.02,4.7-4.76,5.55-.8.25-1.64.42-2.47.5-2.38.26-4.76.28-7.12-.15-3.52-.64-5.43-2.57-6.21-6.15-.52-2.43-.56-4.9-.57-7.36,0-2.58.01-5.17.57-7.71.48-2.21,1.45-4.12,3.53-5.26,1.23-.67,2.57-.95,3.95-1.07,2.3-.2,4.6-.23,6.88.17,3.6.64,5.54,2.62,6.29,6.35.49,2.43.51,4.9.52,7.37ZM52.69,48.02c0-.56.02-1.13,0-1.69-.07-2-.12-4-.68-5.95-.47-1.62-1.51-2.61-3.17-2.91-2.51-.46-5.04-.43-7.56-.06-1.79.27-2.99,1.26-3.44,3.05-.19.75-.4,1.52-.43,2.28-.1,2.81-.22,5.62-.16,8.43.03,1.54.33,3.09.67,4.6.34,1.54,1.43,2.47,2.98,2.77,2.69.51,5.39.52,8.09,0,1.51-.3,2.5-1.21,2.94-2.7.09-.32.19-.63.26-.95.48-2.27.48-4.57.49-6.87Z"/>
  <path class="cls-1" d="M58.93,66.68c.01-2.62.02-5.24.62-7.8.5-2.11,1.48-3.9,3.45-4.98,1.23-.67,2.57-.96,3.94-1.08,2.25-.2,4.5-.22,6.73.15,3.65.6,5.64,2.53,6.43,6.21.52,2.45.56,4.93.56,7.41,0,2.55-.02,5.1-.57,7.61-.44,1.99-1.24,3.77-3.01,4.96-1.12.76-2.39,1.13-3.71,1.3-2.57.32-5.16.38-7.72-.09-3.61-.67-5.47-2.62-6.22-6.31-.5-2.43-.52-4.9-.52-7.37ZM77.51,66.66c0-.99.04-1.99,0-2.98-.08-1.69-.19-3.37-.76-4.98-.45-1.29-1.3-2.16-2.63-2.45-.93-.2-1.89-.34-2.84-.39-1.85-.11-3.7-.1-5.53.31-1.5.33-2.51,1.21-2.94,2.7-.19.67-.37,1.34-.46,2.03-.39,2.88-.35,5.78-.25,8.67.06,1.61.19,3.2.64,4.76.46,1.62,1.5,2.61,3.16,2.92,2.51.46,5.04.44,7.56.06,1.91-.29,3.09-1.39,3.51-3.29.02-.11.06-.22.09-.34.52-2.31.5-4.66.47-7.01Z"/>
  <path class="cls-1" d="M69.8,49.69c-1.84-.16-3.7-.21-5.53-.5-3.32-.52-4.83-2.13-5.24-5.45-.2-1.58-.17-3.17.12-4.75.48-2.56,2.11-3.96,4.56-4.49,2.54-.55,5.13-.53,7.71-.44,1.43.05,2.88.15,4.29.42,3.01.59,4.39,2.1,4.83,5.12.24,1.7.22,3.4-.11,5.09-.43,2.17-1.73,3.55-3.82,4.21-1.83.57-3.72.59-5.6.66-.4.02-.79,0-1.19,0v.12ZM69.8,46.57c0-.05,0-.1,0-.15.88,0,1.76.07,2.63-.02,1.18-.12,2.35-.31,3.51-.57.77-.17,1.22-.77,1.38-1.54.33-1.64.33-3.29,0-4.93-.16-.8-.63-1.35-1.41-1.59-.53-.17-1.09-.36-1.64-.38-2.43-.09-4.86-.18-7.29-.16-1.01,0-2.03.24-3.03.44-1.01.21-1.6.87-1.77,1.9-.25,1.53-.26,3.06.03,4.59.17.9.71,1.47,1.57,1.74.28.09.57.19.86.22,1.71.16,3.42.3,5.14.45Z"/>
  <path class="cls-1" d="M44.94,64.97c2.05.21,4.11.31,6.12.66,2.58.46,4.16,2.06,4.56,4.7.28,1.84.3,3.7-.08,5.53-.47,2.3-1.93,3.66-4.16,4.24-1.99.52-4.03.58-6.06.55-2-.04-4.01-.1-5.98-.38-3.14-.44-4.69-2.09-5.15-5.21-.24-1.61-.21-3.24.07-4.85.44-2.59,2.04-4.14,4.57-4.59,2.01-.35,4.07-.45,6.12-.66ZM44.9,77.66s0-.09,0-.14c.83,0,1.66.07,2.48-.02,1.23-.13,2.45-.32,3.66-.57.7-.15,1.19-.66,1.36-1.38.42-1.77.42-3.54,0-5.31-.15-.62-.54-1.08-1.14-1.29-.57-.2-1.17-.38-1.77-.46-2.55-.35-5.12-.3-7.68-.15-.97.06-1.93.25-2.88.47-.85.2-1.38.79-1.56,1.68-.28,1.38-.29,2.77-.11,4.15.23,1.74.8,2.34,2.55,2.57,1.69.22,3.39.3,5.08.45Z"/>
</svg>