<?xml version="1.0" encoding="UTF-8"?>
<svg id="Layer_1" data-name="Layer 1" xmlns="http://www.w3.org/2000/svg" viewBox="0 0 158.16 164.51">
  <defs>
    <style>
      .cls-1 {
        fill: #fff;
      }
    </style>
  </defs>
  <path class="cls-1" d="M132.32,121.71c-6.53-10.08-18.2-12.84-30.69-16.26-4.74-1.3-10.98-2.96-19.42-3-7.55-.03-12.99,1.26-20.38,3.06-12.8,3.12-19.38,4.47-24.52,9.06-6.28,5.62-10.52,16.04-11.73,25.46l112.38-.26c-.26-6.72-2.28-12.87-5.64-18.06Z"/>
  <path class="cls-1" d="M52.61,59.71c-.09-15.95,12.92-29,29.01-29.1,15.98-.1,28.98,12.79,29.19,28.92.2,15.89-13.07,29.23-29.1,29.23-15.97,0-29.01-13.02-29.1-29.06Z"/>
</svg>